REM DIRINDEX 1\2\4\8,1\2\4\9,1\2\4\10,1\2\5\11,1\2\5\12,1\2\5\13,1\2\5\14,1\2\5\15,1\3\6\16,1\3\6\17,1\3\6\18,1\3\7\19,1\3\7\20,1\3\7\21,1\3\7\22,1\3\7\23
REM DIRNAME "folder01","folder02","folder03","folder04","folder05","folder06","folder07","folder08","folder09","folder10","folder11","folder12","folder13","folder14","folder15","folder16","folder17","folder18","folder19","folder20","folder21","folder22","folder23"
TITLE ""
FILE "LR_black_phrase_B07.mp3" MP3
  TRACK 01 AUDIO
    TITLE "0:"
    INDEX 01 00:00:00
  TRACK 02 AUDIO
    TITLE "19:cjc171_13401"
    INDEX 01 00:00:14
  TRACK 03 AUDIO
    TITLE "0:"
    INDEX 01 00:01:43
  TRACK 04 AUDIO
    TITLE "20:cjc171_13402"
    INDEX 01 00:02:07
  TRACK 05 AUDIO
    TITLE "0:"
    INDEX 01 00:05:51
  TRACK 06 AUDIO
    TITLE "21:cjc171_13403"
    INDEX 01 00:06:50
  TRACK 07 AUDIO
    TITLE "0:"
    INDEX 01 00:09:33
  TRACK 08 AUDIO
    TITLE "22:cjc171_13404"
    INDEX 01 00:09:72
  TRACK 09 AUDIO
    TITLE "0:"
    INDEX 01 00:12:57
  TRACK 10 AUDIO
    TITLE "23:cjc171_13405"
    INDEX 01 00:13:13
  TRACK 11 AUDIO
    TITLE "0:"
    INDEX 01 00:15:73
  TRACK 12 AUDIO
    TITLE "19:cjc171_13406"
    INDEX 01 00:17:03
  TRACK 13 AUDIO
    TITLE "0:"
    INDEX 01 00:18:00
  TRACK 14 AUDIO
    TITLE "20:cjc171_13407"
    INDEX 01 00:18:40
  TRACK 15 AUDIO
    TITLE "0:"
    INDEX 01 00:19:51
  TRACK 16 AUDIO
    TITLE "21:cjc171_13408"
    INDEX 01 00:20:50
  TRACK 17 AUDIO
    TITLE "0:"
    INDEX 01 00:22:59
  TRACK 18 AUDIO
    TITLE "22:cjc171_13409"
    INDEX 01 00:23:23
  TRACK 19 AUDIO
    TITLE "0:"
    INDEX 01 00:25:42
  TRACK 20 AUDIO
    TITLE "23:cjc171_13410"
    INDEX 01 00:25:73
  TRACK 21 AUDIO
    TITLE "0:"
    INDEX 01 00:28:16
  TRACK 22 AUDIO
    TITLE "19:cjc171_13411"
    INDEX 01 00:29:22
  TRACK 23 AUDIO
    TITLE "0:"
    INDEX 01 00:30:53
  TRACK 24 AUDIO
    TITLE "20:cjc171_13412"
    INDEX 01 00:31:17
  TRACK 25 AUDIO
    TITLE "0:"
    INDEX 01 00:32:32
  TRACK 26 AUDIO
    TITLE "21:cjc171_13413"
    INDEX 01 00:33:33
  TRACK 27 AUDIO
    TITLE "0:"
    INDEX 01 00:35:11
  TRACK 28 AUDIO
    TITLE "22:cjc171_13414"
    INDEX 01 00:35:50
  TRACK 29 AUDIO
    TITLE "0:"
    INDEX 01 00:38:07
  TRACK 30 AUDIO
    TITLE "23:cjc171_13415"
    INDEX 01 00:38:38
  TRACK 31 AUDIO
    TITLE "0:"
    INDEX 01 00:40:69
  TRACK 32 AUDIO
    TITLE "19:cjc171_13416"
    INDEX 01 00:41:68
  TRACK 33 AUDIO
    TITLE "0:"
    INDEX 01 00:43:16
  TRACK 34 AUDIO
    TITLE "20:cjc171_13417"
    INDEX 01 00:43:49
  TRACK 35 AUDIO
    TITLE "0:"
    INDEX 01 00:46:61
  TRACK 36 AUDIO
    TITLE "21:cjc171_13418"
    INDEX 01 00:47:59
  TRACK 37 AUDIO
    TITLE "0:"
    INDEX 01 00:50:12
  TRACK 38 AUDIO
    TITLE "22:cjc171_13419"
    INDEX 01 00:50:47
  TRACK 39 AUDIO
    TITLE "0:"
    INDEX 01 00:52:70
  TRACK 40 AUDIO
    TITLE "23:cjc171_13420"
    INDEX 01 00:53:14
  TRACK 41 AUDIO
    TITLE "0:"
    INDEX 01 00:55:39
  TRACK 42 AUDIO
    TITLE "19:cjc171_13421"
    INDEX 01 00:56:34
  TRACK 43 AUDIO
    TITLE "0:"
    INDEX 01 00:57:40
  TRACK 44 AUDIO
    TITLE "20:cjc171_13422"
    INDEX 01 00:58:00
  TRACK 45 AUDIO
    TITLE "0:"
    INDEX 01 01:00:32
  TRACK 46 AUDIO
    TITLE "21:cjc171_13423"
    INDEX 01 01:01:37
  TRACK 47 AUDIO
    TITLE "0:"
    INDEX 01 01:03:66
  TRACK 48 AUDIO
    TITLE "22:cjc171_13424"
    INDEX 01 01:04:24
  TRACK 49 AUDIO
    TITLE "0:"
    INDEX 01 01:06:31
  TRACK 50 AUDIO
    TITLE "23:cjc171_13425"
    INDEX 01 01:06:50
  TRACK 51 AUDIO
    TITLE "0:"
    INDEX 01 01:08:57
  TRACK 52 AUDIO
    TITLE "19:cjc171_13426"
    INDEX 01 01:09:49
  TRACK 53 AUDIO
    TITLE "0:"
    INDEX 01 01:10:74
  TRACK 54 AUDIO
    TITLE "20:cjc171_13427"
    INDEX 01 01:11:34
  TRACK 55 AUDIO
    TITLE "0:"
    INDEX 01 01:12:57
  TRACK 56 AUDIO
    TITLE "21:cjc171_13428"
    INDEX 01 01:13:54
  TRACK 57 AUDIO
    TITLE "0:"
    INDEX 01 01:16:13
  TRACK 58 AUDIO
    TITLE "22:cjc171_13429"
    INDEX 01 01:16:47
  TRACK 59 AUDIO
    TITLE "0:"
    INDEX 01 01:18:48
  TRACK 60 AUDIO
    TITLE "23:cjc171_13430"
    INDEX 01 01:18:67
  TRACK 61 AUDIO
    TITLE "0:"
    INDEX 01 01:20:68
  TRACK 62 AUDIO
    TITLE "19:cjc171_13431"
    INDEX 01 01:21:68
  TRACK 63 AUDIO
    TITLE "0:"
    INDEX 01 01:23:06
  TRACK 64 AUDIO
    TITLE "20:cjc171_13432"
    INDEX 01 01:23:43
  TRACK 65 AUDIO
    TITLE "0:"
    INDEX 01 01:25:58
  TRACK 66 AUDIO
    TITLE "21:cjc171_13433"
    INDEX 01 01:26:55
  TRACK 67 AUDIO
    TITLE "0:"
    INDEX 01 01:28:24
  TRACK 68 AUDIO
    TITLE "22:cjc171_13434"
    INDEX 01 01:28:62
  TRACK 69 AUDIO
    TITLE "0:"
    INDEX 01 01:30:51
  TRACK 70 AUDIO
    TITLE "23:cjc171_13435"
    INDEX 01 01:31:07
  TRACK 71 AUDIO
    TITLE "0:"
    INDEX 01 01:32:69
  TRACK 72 AUDIO
    TITLE "19:cjc171_13436"
    INDEX 01 01:34:02
  TRACK 73 AUDIO
    TITLE "0:"
    INDEX 01 01:35:13
  TRACK 74 AUDIO
    TITLE "20:cjc171_13437"
    INDEX 01 01:35:52
  TRACK 75 AUDIO
    TITLE "0:"
    INDEX 01 01:37:02
  TRACK 76 AUDIO
    TITLE "21:cjc171_13438"
    INDEX 01 01:37:74
  TRACK 77 AUDIO
    TITLE "0:"
    INDEX 01 01:40:41
  TRACK 78 AUDIO
    TITLE "22:cjc171_13439"
    INDEX 01 01:41:06
  TRACK 79 AUDIO
    TITLE "0:"
    INDEX 01 01:43:52
  TRACK 80 AUDIO
    TITLE "23:cjc171_13440"
    INDEX 01 01:44:06
  TRACK 81 AUDIO
    TITLE "0:"
    INDEX 01 01:46:52
  TRACK 82 AUDIO
    TITLE "19:cjc171_13441"
    INDEX 01 01:47:55
  TRACK 83 AUDIO
    TITLE "0:"
    INDEX 01 01:48:72
  TRACK 84 AUDIO
    TITLE "20:cjc171_13442"
    INDEX 01 01:49:38
  TRACK 85 AUDIO
    TITLE "0:"
    INDEX 01 01:52:00
  TRACK 86 AUDIO
    TITLE "21:cjc171_13443"
    INDEX 01 01:52:74
  TRACK 87 AUDIO
    TITLE "0:"
    INDEX 01 01:54:57
  TRACK 88 AUDIO
    TITLE "22:cjc171_13444"
    INDEX 01 01:55:21
  TRACK 89 AUDIO
    TITLE "0:"
    INDEX 01 01:57:38
  TRACK 90 AUDIO
    TITLE "23:cjc171_13445"
    INDEX 01 01:57:67
  TRACK 91 AUDIO
    TITLE "0:"
    INDEX 01 02:00:09
  TRACK 92 AUDIO
    TITLE "19:cjc171_13446"
    INDEX 01 02:01:06
  TRACK 93 AUDIO
    TITLE "0:"
    INDEX 01 02:02:29
  TRACK 94 AUDIO
    TITLE "20:cjc171_13447"
    INDEX 01 02:02:66
  TRACK 95 AUDIO
    TITLE "0:"
    INDEX 01 02:04:26
  TRACK 96 AUDIO
    TITLE "21:cjc171_13448"
    INDEX 01 02:05:24
  TRACK 97 AUDIO
    TITLE "0:"
    INDEX 01 02:07:17
  TRACK 98 AUDIO
    TITLE "22:cjc171_13449"
    INDEX 01 02:07:50
  TRACK 99 AUDIO
    TITLE "0:"
    INDEX 01 02:09:63
  TRACK 100 AUDIO
    TITLE "23:cjc171_13450"
    INDEX 01 02:10:07
  TRACK 101 AUDIO
    TITLE "0:"
    INDEX 01 02:12:22
  TRACK 102 AUDIO
    TITLE "19:cjc171_13451"
    INDEX 01 02:13:15
  TRACK 103 AUDIO
    TITLE "0:"
    INDEX 01 02:14:40
  TRACK 104 AUDIO
    TITLE "20:cjc171_13452"
    INDEX 01 02:14:74
  TRACK 105 AUDIO
    TITLE "0:"
    INDEX 01 02:16:29
  TRACK 106 AUDIO
    TITLE "21:cjc171_13453"
    INDEX 01 02:17:27
  TRACK 107 AUDIO
    TITLE "0:"
    INDEX 01 02:19:32
  TRACK 108 AUDIO
    TITLE "22:cjc171_13454"
    INDEX 01 02:19:67
  TRACK 109 AUDIO
    TITLE "0:"
    INDEX 01 02:22:08
  TRACK 110 AUDIO
    TITLE "23:cjc171_13455"
    INDEX 01 02:22:32
  TRACK 111 AUDIO
    TITLE "0:"
    INDEX 01 02:24:48
  TRACK 112 AUDIO
    TITLE "19:cjc171_13456"
    INDEX 01 02:25:48
  TRACK 113 AUDIO
    TITLE "0:"
    INDEX 01 02:27:02
  TRACK 114 AUDIO
    TITLE "20:cjc171_13457"
    INDEX 01 02:27:43
  TRACK 115 AUDIO
    TITLE "0:"
    INDEX 01 02:28:60
  TRACK 116 AUDIO
    TITLE "21:cjc171_13458"
    INDEX 01 02:29:59
  TRACK 117 AUDIO
    TITLE "0:"
    INDEX 01 02:31:31
  TRACK 118 AUDIO
    TITLE "22:cjc171_13459"
    INDEX 01 02:31:64
  TRACK 119 AUDIO
    TITLE "0:"
    INDEX 01 02:33:73
  TRACK 120 AUDIO
    TITLE "23:cjc171_13460"
    INDEX 01 02:34:23
  TRACK 121 AUDIO
    TITLE "0:"
    INDEX 01 02:36:30
  TRACK 122 AUDIO
    TITLE "19:cjc171_13461"
    INDEX 01 02:37:33
  TRACK 123 AUDIO
    TITLE "0:"
    INDEX 01 02:38:47
  TRACK 124 AUDIO
    TITLE "20:cjc171_13462"
    INDEX 01 02:39:11
  TRACK 125 AUDIO
    TITLE "0:"
    INDEX 01 02:40:30
  TRACK 126 AUDIO
    TITLE "21:cjc171_13463"
    INDEX 01 02:41:29
  TRACK 127 AUDIO
    TITLE "0:"
    INDEX 01 02:44:08
  TRACK 128 AUDIO
    TITLE "22:cjc171_13464"
    INDEX 01 02:44:47
  TRACK 129 AUDIO
    TITLE "0:"
    INDEX 01 02:46:40
  TRACK 130 AUDIO
    TITLE "23:cjc171_13465"
    INDEX 01 02:46:70
  TRACK 131 AUDIO
    TITLE "0:"
    INDEX 01 02:48:63
  TRACK 132 AUDIO
    TITLE "19:cjc171_13466"
    INDEX 01 02:49:66
  TRACK 133 AUDIO
    TITLE "0:"
    INDEX 01 02:51:26
  TRACK 134 AUDIO
    TITLE "20:cjc171_13467"
    INDEX 01 02:51:65
  TRACK 135 AUDIO
    TITLE "0:"
    INDEX 01 02:53:42
  TRACK 136 AUDIO
    TITLE "21:cjc171_13468"
    INDEX 01 02:54:42
  TRACK 137 AUDIO
    TITLE "0:"
    INDEX 01 02:57:62
  TRACK 138 AUDIO
    TITLE "22:cjc171_13469"
    INDEX 01 02:58:24
  TRACK 139 AUDIO
    TITLE "0:"
    INDEX 01 03:00:68
  TRACK 140 AUDIO
    TITLE "23:cjc171_13470"
    INDEX 01 03:01:22
  TRACK 141 AUDIO
    TITLE "0:"
    INDEX 01 03:03:64
  TRACK 142 AUDIO
    TITLE "19:cjc171_13471"
    INDEX 01 03:04:70
  TRACK 143 AUDIO
    TITLE "0:"
    INDEX 01 03:06:12
  TRACK 144 AUDIO
    TITLE "20:cjc171_13472"
    INDEX 01 03:06:49
  TRACK 145 AUDIO
    TITLE "0:"
    INDEX 01 03:09:47
  TRACK 146 AUDIO
    TITLE "21:cjc171_13473"
    INDEX 01 03:10:45
  TRACK 147 AUDIO
    TITLE "0:"
    INDEX 01 03:13:16
  TRACK 148 AUDIO
    TITLE "22:cjc171_13474"
    INDEX 01 03:13:55
  TRACK 149 AUDIO
    TITLE "0:"
    INDEX 01 03:15:67
  TRACK 150 AUDIO
    TITLE "23:cjc171_13475"
    INDEX 01 03:16:22
  TRACK 151 AUDIO
    TITLE "0:"
    INDEX 01 03:18:34
  TRACK 152 AUDIO
    TITLE "19:cjc171_13476"
    INDEX 01 03:19:34
  TRACK 153 AUDIO
    TITLE "0:"
    INDEX 01 03:20:55
  TRACK 154 AUDIO
    TITLE "20:cjc171_13477"
    INDEX 01 03:21:15
  TRACK 155 AUDIO
    TITLE "0:"
    INDEX 01 03:22:20
  TRACK 156 AUDIO
    TITLE "21:cjc171_13478"
    INDEX 01 03:23:20
  TRACK 157 AUDIO
    TITLE "0:"
    INDEX 01 03:25:05
  TRACK 158 AUDIO
    TITLE "22:cjc171_13479"
    INDEX 01 03:25:40
  TRACK 159 AUDIO
    TITLE "0:"
    INDEX 01 03:28:00
  TRACK 160 AUDIO
    TITLE "23:cjc171_13480"
    INDEX 01 03:28:21
  TRACK 161 AUDIO
    TITLE "0:"
    INDEX 01 03:30:55
  TRACK 162 AUDIO
    TITLE "19:cjc171_13481"
    INDEX 01 03:31:49
  TRACK 163 AUDIO
    TITLE "0:"
    INDEX 01 03:32:70
  TRACK 164 AUDIO
    TITLE "20:cjc171_13482"
    INDEX 01 03:33:32
  TRACK 165 AUDIO
    TITLE "0:"
    INDEX 01 03:36:26
  TRACK 166 AUDIO
    TITLE "21:cjc171_13483"
    INDEX 01 03:37:26
  TRACK 167 AUDIO
    TITLE "0:"
    INDEX 01 03:39:31
  TRACK 168 AUDIO
    TITLE "22:cjc171_13484"
    INDEX 01 03:39:62
  TRACK 169 AUDIO
    TITLE "0:"
    INDEX 01 03:42:00
  TRACK 170 AUDIO
    TITLE "23:cjc171_13485"
    INDEX 01 03:42:19
  TRACK 171 AUDIO
    TITLE "0:"
    INDEX 01 03:44:32
  TRACK 172 AUDIO
    TITLE "19:cjc171_13486"
    INDEX 01 03:45:29
  TRACK 173 AUDIO
    TITLE "0:"
    INDEX 01 03:46:62
  TRACK 174 AUDIO
    TITLE "20:cjc171_13487"
    INDEX 01 03:47:22
  TRACK 175 AUDIO
    TITLE "0:"
    INDEX 01 03:51:01
  TRACK 176 AUDIO
    TITLE "21:cjc171_13488"
    INDEX 01 03:52:02
  TRACK 177 AUDIO
    TITLE "0:"
    INDEX 01 03:54:07
  TRACK 178 AUDIO
    TITLE "22:cjc171_13489"
    INDEX 01 03:54:42
  TRACK 179 AUDIO
    TITLE "0:"
    INDEX 01 03:56:41
  TRACK 180 AUDIO
    TITLE "23:cjc171_13490"
    INDEX 01 03:56:62
  TRACK 181 AUDIO
    TITLE "0:"
    INDEX 01 03:58:61
  TRACK 182 AUDIO
    TITLE "19:cjc171_13491"
    INDEX 01 03:59:63
  TRACK 183 AUDIO
    TITLE "0:"
    INDEX 01 04:01:09
  TRACK 184 AUDIO
    TITLE "20:cjc171_13492"
    INDEX 01 04:01:50
  TRACK 185 AUDIO
    TITLE "0:"
    INDEX 01 04:03:51
  TRACK 186 AUDIO
    TITLE "21:cjc171_13493"
    INDEX 01 04:04:50
  TRACK 187 AUDIO
    TITLE "0:"
    INDEX 01 04:06:57
  TRACK 188 AUDIO
    TITLE "22:cjc171_13494"
    INDEX 01 04:07:21
  TRACK 189 AUDIO
    TITLE "0:"
    INDEX 01 04:09:42
  TRACK 190 AUDIO
    TITLE "23:cjc171_13495"
    INDEX 01 04:09:71
  TRACK 191 AUDIO
    TITLE "0:"
    INDEX 01 04:12:16
  TRACK 192 AUDIO
    TITLE "19:cjc171_13496"
    INDEX 01 04:13:22
  TRACK 193 AUDIO
    TITLE "0:"
    INDEX 01 04:14:43
  TRACK 194 AUDIO
    TITLE "20:cjc171_13497"
    INDEX 01 04:15:07
  TRACK 195 AUDIO
    TITLE "0:"
    INDEX 01 04:17:31
  TRACK 196 AUDIO
    TITLE "21:cjc171_13498"
    INDEX 01 04:18:33
  TRACK 197 AUDIO
    TITLE "0:"
    INDEX 01 04:19:54
  TRACK 198 AUDIO
    TITLE "22:cjc171_13499"
    INDEX 01 04:20:18
  TRACK 199 AUDIO
    TITLE "0:"
    INDEX 01 04:22:03
  TRACK 200 AUDIO
    TITLE "23:cjc171_13500"
    INDEX 01 04:22:32
  TRACK 201 AUDIO
    TITLE "0:"
    INDEX 01 04:24:18
  TRACK 202 AUDIO
    TITLE "19:cjc171_13501"
    INDEX 01 04:25:21
  TRACK 203 AUDIO
    TITLE "0:"
    INDEX 01 04:26:32
  TRACK 204 AUDIO
    TITLE "20:cjc171_13502"
    INDEX 01 04:26:71
  TRACK 205 AUDIO
    TITLE "0:"
    INDEX 01 04:28:04
  TRACK 206 AUDIO
    TITLE "21:cjc171_13503"
    INDEX 01 04:29:05
  TRACK 207 AUDIO
    TITLE "0:"
    INDEX 01 04:30:63
  TRACK 208 AUDIO
    TITLE "22:cjc171_13504"
    INDEX 01 04:31:29
  TRACK 209 AUDIO
    TITLE "0:"
    INDEX 01 04:33:22
  TRACK 210 AUDIO
    TITLE "23:cjc171_13505"
    INDEX 01 04:33:50
  TRACK 211 AUDIO
    TITLE "0:"
    INDEX 01 04:35:43
  TRACK 212 AUDIO
    TITLE "19:cjc171_13506"
    INDEX 01 04:36:40
  TRACK 213 AUDIO
    TITLE "0:"
    INDEX 01 04:37:57
  TRACK 214 AUDIO
    TITLE "20:cjc171_13507"
    INDEX 01 04:38:20
  TRACK 215 AUDIO
    TITLE "0:"
    INDEX 01 04:40:64
  TRACK 216 AUDIO
    TITLE "21:cjc171_13508"
    INDEX 01 04:41:65
  TRACK 217 AUDIO
    TITLE "0:"
    INDEX 01 04:43:66
  TRACK 218 AUDIO
    TITLE "22:cjc171_13509"
    INDEX 01 04:44:24
  TRACK 219 AUDIO
    TITLE "0:"
    INDEX 01 04:46:33
  TRACK 220 AUDIO
    TITLE "23:cjc171_13510"
    INDEX 01 04:46:60
  TRACK 221 AUDIO
    TITLE "0:"
    INDEX 01 04:48:69
  TRACK 222 AUDIO
    TITLE "19:cjc171_13511"
    INDEX 01 04:49:70
  TRACK 223 AUDIO
    TITLE "0:"
    INDEX 01 04:51:15
  TRACK 224 AUDIO
    TITLE "20:cjc171_13512"
    INDEX 01 04:51:50
  TRACK 225 AUDIO
    TITLE "0:"
    INDEX 01 04:52:71
  TRACK 226 AUDIO
    TITLE "21:cjc171_13513"
    INDEX 01 04:53:70
  TRACK 227 AUDIO
    TITLE "0:"
    INDEX 01 04:56:43
  TRACK 228 AUDIO
    TITLE "22:cjc171_13514"
    INDEX 01 04:57:05
  TRACK 229 AUDIO
    TITLE "0:"
    INDEX 01 04:59:65
  TRACK 230 AUDIO
    TITLE "23:cjc171_13515"
    INDEX 01 05:00:10
  TRACK 231 AUDIO
    TITLE "0:"
    INDEX 01 05:02:73
  TRACK 232 AUDIO
    TITLE "19:cjc171_13516"
    INDEX 01 05:03:69
  TRACK 233 AUDIO
    TITLE "0:"
    INDEX 01 05:05:09
  TRACK 234 AUDIO
    TITLE "20:cjc171_13517"
    INDEX 01 05:05:42
  TRACK 235 AUDIO
    TITLE "0:"
    INDEX 01 05:06:71
  TRACK 236 AUDIO
    TITLE "21:cjc171_13518"
    INDEX 01 05:07:70
  TRACK 237 AUDIO
    TITLE "0:"
    INDEX 01 05:09:57
  TRACK 238 AUDIO
    TITLE "22:cjc171_13519"
    INDEX 01 05:10:16
  TRACK 239 AUDIO
    TITLE "0:"
    INDEX 01 05:12:26
  TRACK 240 AUDIO
    TITLE "23:cjc171_13520"
    INDEX 01 05:12:48
  TRACK 241 AUDIO
    TITLE "0:"
    INDEX 01 05:14:57
  TRACK 242 AUDIO
    TITLE "19:cjc171_13521"
    INDEX 01 05:15:56
  TRACK 243 AUDIO
    TITLE "0:"
    INDEX 01 05:17:10
  TRACK 244 AUDIO
    TITLE "20:cjc171_13522"
    INDEX 01 05:17:51
  TRACK 245 AUDIO
    TITLE "0:"
    INDEX 01 05:18:56
  TRACK 246 AUDIO
    TITLE "21:cjc171_13523"
    INDEX 01 05:19:54
  TRACK 247 AUDIO
    TITLE "0:"
    INDEX 01 05:21:65
  TRACK 248 AUDIO
    TITLE "22:cjc171_13524"
    INDEX 01 05:22:27
  TRACK 249 AUDIO
    TITLE "0:"
    INDEX 01 05:24:55
  TRACK 250 AUDIO
    TITLE "23:cjc171_13525"
    INDEX 01 05:25:10
  TRACK 251 AUDIO
    TITLE "0:"
    INDEX 01 05:27:38
  TRACK 252 AUDIO
    TITLE "19:cjc171_13526"
    INDEX 01 05:28:41
  TRACK 253 AUDIO
    TITLE "0:"
    INDEX 01 05:29:62
  TRACK 254 AUDIO
    TITLE "20:cjc171_13527"
    INDEX 01 05:30:26
  TRACK 255 AUDIO
    TITLE "0:"
    INDEX 01 05:32:31
  TRACK 256 AUDIO
    TITLE "21:cjc171_13528"
    INDEX 01 05:33:31
  TRACK 257 AUDIO
    TITLE "0:"
    INDEX 01 05:34:65
  TRACK 258 AUDIO
    TITLE "22:cjc171_13529"
    INDEX 01 05:35:29
  TRACK 259 AUDIO
    TITLE "0:"
    INDEX 01 05:37:34
  TRACK 260 AUDIO
    TITLE "23:cjc171_13530"
    INDEX 01 05:37:64
  TRACK 261 AUDIO
    TITLE "0:"
    INDEX 01 05:39:66
  TRACK 262 AUDIO
    TITLE "19:cjc171_13531"
    INDEX 01 05:40:70
  TRACK 263 AUDIO
    TITLE "0:"
    INDEX 01 05:42:10
  TRACK 264 AUDIO
    TITLE "20:cjc171_13532"
    INDEX 01 05:42:47
  TRACK 265 AUDIO
    TITLE "0:"
    INDEX 01 05:44:73
  TRACK 266 AUDIO
    TITLE "21:cjc171_13533"
    INDEX 01 05:46:00
  TRACK 267 AUDIO
    TITLE "0:"
    INDEX 01 05:47:46
  TRACK 268 AUDIO
    TITLE "22:cjc171_13534"
    INDEX 01 05:48:07
  TRACK 269 AUDIO
    TITLE "0:"
    INDEX 01 05:49:65
  TRACK 270 AUDIO
    TITLE "23:cjc171_13535"
    INDEX 01 05:50:15
  TRACK 271 AUDIO
    TITLE "0:"
    INDEX 01 05:52:01
  TRACK 272 AUDIO
    TITLE "19:cjc171_13536"
    INDEX 01 05:52:73
  TRACK 273 AUDIO
    TITLE "0:"
    INDEX 01 05:54:05
  TRACK 274 AUDIO
    TITLE "20:cjc171_13537"
    INDEX 01 05:54:43
  TRACK 275 AUDIO
    TITLE "0:"
    INDEX 01 05:55:52
  TRACK 276 AUDIO
    TITLE "21:cjc171_13538"
    INDEX 01 05:56:53
  TRACK 277 AUDIO
    TITLE "0:"
    INDEX 01 05:58:19
  TRACK 278 AUDIO
    TITLE "22:cjc171_13539"
    INDEX 01 05:58:52
  TRACK 279 AUDIO
    TITLE "0:"
    INDEX 01 06:00:39
  TRACK 280 AUDIO
    TITLE "23:cjc171_13540"
    INDEX 01 06:00:65
  TRACK 281 AUDIO
    TITLE "0:"
    INDEX 01 06:02:52
  TRACK 282 AUDIO
    TITLE "19:cjc171_13541"
    INDEX 01 06:03:49
  TRACK 283 AUDIO
    TITLE "0:"
    INDEX 01 06:04:61
  TRACK 284 AUDIO
    TITLE "20:cjc171_13542"
    INDEX 01 06:05:21
  TRACK 285 AUDIO
    TITLE "0:"
    INDEX 01 06:08:68
  TRACK 286 AUDIO
    TITLE "21:cjc171_13543"
    INDEX 01 06:09:70
  TRACK 287 AUDIO
    TITLE "0:"
    INDEX 01 06:11:45
  TRACK 288 AUDIO
    TITLE "22:cjc171_13544"
    INDEX 01 06:12:05
  TRACK 289 AUDIO
    TITLE "0:"
    INDEX 01 06:14:37
  TRACK 290 AUDIO
    TITLE "23:cjc171_13545"
    INDEX 01 06:14:63
  TRACK 291 AUDIO
    TITLE "0:"
    INDEX 01 06:17:20
  TRACK 292 AUDIO
    TITLE "19:cjc171_13546"
    INDEX 01 06:18:19
  TRACK 293 AUDIO
    TITLE "0:"
    INDEX 01 06:19:46
  TRACK 294 AUDIO
    TITLE "20:cjc171_13547"
    INDEX 01 06:20:05
  TRACK 295 AUDIO
    TITLE "0:"
    INDEX 01 06:22:33
  TRACK 296 AUDIO
    TITLE "21:cjc171_13548"
    INDEX 01 06:23:34
  TRACK 297 AUDIO
    TITLE "0:"
    INDEX 01 06:25:39
  TRACK 298 AUDIO
    TITLE "22:cjc171_13549"
    INDEX 01 06:25:74
  TRACK 299 AUDIO
    TITLE "0:"
    INDEX 01 06:27:69
  TRACK 300 AUDIO
    TITLE "23:cjc171_13550"
    INDEX 01 06:28:14
  TRACK 301 AUDIO
    TITLE "0:"
    INDEX 01 06:30:11
